<svg height="450pt" viewBox="-12 0 450 450.48" width="450pt" xmlns="http://www.w3.org/2000/svg"><path d="m361.160156 195.660156c0-18.988281 14.371094-34.390625 32.101563-34.390625h.71875c17.699219 0 32.058593 15.339844 32.101562 34.289063.148438 62.03125.046875 68.121094-.03125 160.769531-.050781 52.011719-39.429687 94.152344-87.992187 94.152344h-104.257813c-31.902343 0-61.308593-18.511719-76.851562-48.359375l-92.957031-178.589844 9.707031-8.050781c20.109375-18.480469 50.351562-16.210938 67.851562 5.089843l26.007813 31.667969.160156-217.867187c.011719-18.992188 14.382812-34.371094 32.101562-34.371094h.011719c17.726563 0 32.097657 15.398438 32.097657 34.390625v131.570313c.582031-18.441407 14.730468-33.199219 32.089843-33.199219h.75c17.730469 0 32.109375 15.398437 32.109375 34.386719v11.070312c0-19 14.371094-34.390625 32.101563-34.390625h.078125c17.730468 0 32.101562 15.390625 32.101562 34.390625zm0 0" fill="#f7caa5"/><g fill="#fedb41"><path d="m396.738281 57.703125-32.132812-32.128906c-3.121094-3.125-8.1875-3.125-11.3125 0s-3.125 8.1875 0 11.3125l18.351562 18.351562h-103.445312c-4.417969 0-8 3.582031-8 8 0 4.421875 3.582031 8 8 8h103.6875l-18.59375 18.59375c-3.125 3.125-3.125 8.191407 0 11.316407 3.125 3.121093 8.191406 3.121093 11.3125 0l32.132812-32.132813c3.125-3.121094 3.125-8.1875 0-11.3125zm0 0"/><path d="m130.199219 55.238281h-102.523438l18.351563-18.351562c3.125-3.125 3.125-8.1875 0-11.3125s-8.191406-3.125-11.3125 0l-32.132813 32.128906c-3.125 3.125-3.125 8.191406 0 11.3125l32.132813 32.132813c3.121094 3.121093 8.1875 3.121093 11.3125 0 3.125-3.125 3.125-8.191407 0-11.316407l-18.59375-18.59375h102.765625c4.417969 0 8-3.578125 8-8 0-4.417969-3.582031-8-8-8zm0 0"/></g></svg>